<?xml version="1.0" encoding="UTF-8"?>
<svg xmlns="http://www.w3.org/2000/svg" xmlns:xlink="http://www.w3.org/1999/xlink" width="300px" height="338px" viewBox="0 0 300 337" version="1.1">
<defs>
<clipPath id="clip1">
  <path d="M 60 93.964844 L 240 93.964844 L 240 243.03125 L 60 243.03125 Z M 60 93.964844 "/>
</clipPath>
</defs>
<g id="surface1">
<path style=" stroke:none;fill-rule:nonzero;fill:rgb(14.901961%,20.784314%,89.411765%);fill-opacity:1;" d="M 19.652344 212.703125 L 23.144531 217.0625 L 21.398438 211.394531 C 20.960938 208.777344 17.90625 211.832031 19.652344 212.703125 M 23.582031 210.085938 C 24.890625 212.265625 26.203125 214.445312 26.203125 216.628906 C 26.203125 219.679688 28.820312 220.988281 31.003906 221.859375 C 27.945312 218.371094 26.199219 208.777344 23.582031 210.085938 M 191.265625 25.207031 C 198.6875 25.207031 205.675781 24.335938 213.539062 26.078125 C 232.75 30.875 248.90625 40.46875 259.824219 53.988281 L 290.394531 102.824219 C 291.703125 115.03125 294.324219 128.546875 293.886719 143.375 C 296.945312 143.375 296.507812 139.011719 300 138.140625 C 296.507812 146.863281 294.757812 157.761719 293.886719 170.40625 C 291.703125 163.429688 293.886719 152.964844 294.324219 147.296875 C 291.265625 152.09375 289.519531 148.605469 289.519531 146.425781 C 289.957031 142.9375 288.210938 143.371094 286.898438 142.066406 C 282.09375 137.703125 279.039062 132.90625 275.546875 125.496094 C 277.730469 119.828125 278.167969 111.542969 271.179688 107.183594 C 268.996094 105.875 266.375 103.695312 265.066406 100.207031 C 263.320312 95.410156 260.261719 89.742188 261.136719 82.328125 C 261.570312 80.148438 254.585938 87.125 250.65625 84.074219 C 233.625 72.300781 216.59375 58.78125 196.070312 47.445312 C 185.152344 47.445312 177.292969 43.523438 173.363281 38.726562 C 169.871094 34.363281 172.488281 28.695312 177.730469 28.261719 C 180.785156 28.261719 184.28125 27.386719 186.898438 29.132812 C 187.335938 27.390625 189.082031 25.207031 191.265625 25.207031 M 148.035156 15.179688 L 148.910156 15.617188 C 153.277344 16.488281 155.460938 22.59375 160.261719 20.410156 C 160.261719 23.464844 160.699219 26.515625 159.824219 28.695312 C 158.515625 32.183594 154.585938 32.183594 151.527344 32.183594 C 122.269531 30.441406 105.238281 42.648438 87.335938 53.113281 C 82.53125 56.167969 77.292969 58.347656 73.363281 62.269531 C 54.585938 79.710938 34.0625 95.84375 29.257812 128.113281 L 25.328125 163.867188 C 24.890625 167.792969 20.523438 171.714844 21.398438 176.511719 L 24.453125 197.878906 C 21.398438 194.824219 19.648438 198.75 20.523438 200.496094 C 20.960938 201.800781 22.707031 206.164062 25.328125 202.238281 C 28.820312 208.777344 32.316406 221.425781 37.117188 227.09375 C 51.964844 244.535156 71.179688 260.230469 86.898438 275.929688 C 90.828125 275.054688 93.886719 275.054688 94.757812 272.4375 C 96.070312 275.054688 93.449219 277.671875 91.265625 278.109375 C 98.253906 282.46875 106.113281 286.394531 116.59375 287.265625 C 130.132812 288.136719 142.796875 290.316406 154.585938 293.371094 C 160.699219 291.625 166.8125 290.753906 173.363281 290.316406 C 175.546875 290.316406 176.855469 286.828125 179.476562 285.957031 L 179.914062 281.597656 C 182.53125 285.519531 182.097656 280.289062 180.351562 277.671875 C 183.40625 280.289062 184.28125 282.46875 185.589844 284.210938 C 185.589844 282.90625 189.082031 278.109375 189.082031 283.777344 L 189.957031 278.109375 C 191.265625 277.234375 191.703125 282.90625 193.011719 278.980469 C 194.324219 275.054688 196.945312 278.105469 199.5625 276.800781 C 198.691406 278.542969 199.125 282.03125 202.183594 279.851562 L 205.675781 276.800781 C 207.859375 282.03125 211.355469 279.851562 213.101562 278.980469 C 232.3125 266.769531 251.527344 252.382812 269.867188 237.992188 L 269.433594 243.660156 L 271.617188 236.683594 C 273.796875 238.863281 275.546875 237.121094 276.417969 235.8125 C 279.039062 231.453125 282.53125 227.09375 288.210938 223.167969 C 281.222656 241.917969 272.925781 256.742188 262.445312 268.953125 L 258.078125 274.183594 C 258.078125 277.238281 257.203125 281.160156 253.710938 281.597656 C 251.964844 282.03125 248.472656 280.722656 245.851562 283.339844 C 244.542969 285.085938 248.910156 288.574219 245.414062 285.957031 C 242.359375 283.777344 239.300781 285.957031 235.808594 286.828125 C 233.1875 287.703125 237.554688 290.316406 238.429688 292.0625 C 239.300781 293.804688 240.175781 295.550781 239.738281 297.730469 L 234.933594 292.496094 C 229.257812 295.550781 225.765625 301.21875 220.960938 305.578125 C 218.777344 307.324219 219.652344 310.375 219.652344 312.992188 C 216.59375 312.992188 213.101562 312.117188 211.355469 313.863281 C 210.042969 315.605469 210.480469 318.222656 210.480469 320.839844 C 206.113281 320.402344 205.675781 313.863281 201.746094 315.171875 C 197.816406 316.042969 193.449219 316.480469 189.957031 318.660156 C 192.578125 323.890625 185.589844 320.839844 186.464844 321.710938 C 179.914062 317.789062 174.234375 314.734375 167.25 317.351562 C 152.402344 312.554688 134.0625 314.734375 120.523438 316.480469 C 120.523438 314.300781 120.960938 312.117188 120.085938 311.683594 C 119.214844 313.863281 116.59375 312.992188 117.03125 312.992188 C 108.734375 307.324219 100.4375 303.832031 91.703125 299.039062 C 83.84375 299.910156 76.417969 295.984375 74.234375 293.804688 C 68.121094 288.136719 61.136719 291.1875 55.457031 289.878906 C 43.230469 286.828125 38.863281 274.183594 37.554688 265.464844 C 36.679688 261.101562 33.1875 259.359375 31.878906 259.792969 C 26.203125 241.480469 17.46875 224.910156 10.480469 207.90625 C 8.734375 203.546875 9.171875 199.1875 9.171875 194.390625 C 11.355469 195.261719 13.539062 194.824219 13.101562 191.773438 C 10.917969 177.382812 5.675781 166.484375 0 156.019531 C 3.058594 141.195312 3.492188 123.753906 10.480469 110.671875 C 16.59375 98.898438 27.949219 92.792969 35.808594 82.765625 C 38.429688 79.277344 38.429688 74.480469 41.046875 71.429688 C 49.78125 62.707031 58.515625 53.550781 68.121094 45.703125 C 72.488281 42.214844 77.730469 45.703125 84.28125 44.394531 C 86.460938 36.546875 95.195312 29.570312 103.492188 31.75 C 106.988281 32.621094 113.972656 23.464844 116.15625 22.59375 C 119.648438 21.285156 117.902344 26.078125 117.902344 29.132812 C 126.199219 22.59375 137.554688 19.105469 148.035156 15.179688 "/>
<g clip-path="url(#clip1)" clip-rule="nonzero">
<path style=" stroke:none;fill-rule:nonzero;fill:rgb(26.27451%,85.098039%,86.27451%);fill-opacity:1;" d="M 123.769531 243.035156 L 75.355469 243.035156 C 71.089844 243.035156 67.464844 241.542969 64.480469 238.5625 C 61.492188 235.582031 60 231.960938 60 227.703125 L 60 194.695312 L 79.835938 199.164062 L 79.835938 215.5625 C 79.835938 217.691406 80.585938 219.496094 82.09375 220.972656 C 83.574219 222.476562 85.308594 223.230469 87.296875 223.230469 L 111.613281 223.230469 C 113.742188 223.230469 115.5625 222.476562 117.070312 220.972656 C 118.550781 219.496094 119.289062 217.691406 119.289062 215.5625 L 119.289062 178.082031 C 119.289062 175.953125 118.550781 174.136719 117.070312 172.632812 C 115.5625 171.15625 113.742188 170.417969 111.613281 170.417969 L 75.355469 170.417969 C 71.089844 170.417969 67.464844 168.925781 64.480469 165.945312 C 61.492188 162.964844 60 159.34375 60 155.082031 L 60 109.296875 C 60 105.039062 61.492188 101.417969 64.480469 98.4375 C 67.464844 95.457031 71.089844 93.964844 75.355469 93.964844 L 123.769531 93.964844 C 128.03125 93.964844 131.660156 95.457031 134.644531 98.4375 C 137.628906 101.417969 139.125 105.039062 139.125 109.296875 L 139.125 132.296875 L 119.289062 127.613281 L 119.289062 121.4375 C 119.289062 119.308594 118.550781 117.492188 117.070312 115.984375 C 115.5625 114.507812 113.742188 113.769531 111.613281 113.769531 L 87.296875 113.769531 C 85.308594 113.769531 83.574219 114.507812 82.09375 115.984375 C 80.585938 117.492188 79.835938 119.308594 79.835938 121.4375 L 79.835938 142.945312 C 79.835938 145.074219 80.585938 146.878906 82.09375 148.355469 C 83.574219 149.859375 85.308594 150.613281 87.296875 150.613281 L 123.769531 150.613281 C 128.03125 150.613281 131.660156 152.101562 134.644531 155.082031 C 137.628906 158.066406 139.125 161.683594 139.125 165.945312 L 139.125 227.703125 C 139.125 231.960938 137.628906 235.582031 134.644531 238.5625 C 131.660156 241.542969 128.03125 243.035156 123.769531 243.035156 Z M 224.644531 243.035156 L 176.230469 243.035156 C 171.96875 243.035156 168.339844 241.542969 165.355469 238.5625 C 162.371094 235.582031 160.875 231.960938 160.875 227.703125 L 160.875 109.085938 C 160.875 104.96875 162.371094 101.417969 165.355469 98.4375 C 168.339844 95.457031 171.96875 93.964844 176.230469 93.964844 L 224.644531 93.964844 C 228.910156 93.964844 232.535156 95.457031 235.519531 98.4375 C 238.507812 101.417969 240 104.96875 240 109.085938 L 240 142.304688 L 220.164062 137.835938 L 220.164062 121.222656 C 220.164062 119.09375 219.414062 117.277344 217.90625 115.773438 C 216.425781 114.296875 214.621094 113.558594 212.488281 113.558594 L 188.386719 113.558594 C 186.257812 113.558594 184.4375 114.296875 182.929688 115.773438 C 181.449219 117.277344 180.710938 119.09375 180.710938 121.222656 L 180.710938 215.5625 C 180.710938 217.691406 181.449219 219.496094 182.929688 220.972656 C 184.4375 222.476562 186.257812 223.230469 188.386719 223.230469 L 212.488281 223.230469 C 214.621094 223.230469 216.425781 222.476562 217.90625 220.972656 C 219.414062 219.496094 220.164062 217.691406 220.164062 215.5625 L 220.164062 194.90625 L 200.546875 194.90625 L 205.023438 175.101562 L 240 175.101562 L 240 227.703125 C 240 231.960938 238.507812 235.582031 235.519531 238.5625 C 232.535156 241.542969 228.910156 243.035156 224.644531 243.035156 Z M 224.644531 243.035156 "/>
</g>
</g>
</svg>
